<svg xmlns="http://www.w3.org/2000/svg" xmlns:xlink="http://www.w3.org/1999/xlink" width="500" zoomAndPan="magnify" viewBox="0 0 375 374.999991" height="500" preserveAspectRatio="xMidYMid meet" version="1.0"><defs><g/><clipPath id="id1"><path d="M 7.390625 5.097656 L 362.140625 5.097656 L 362.140625 359.847656 L 7.390625 359.847656 Z M 7.390625 5.097656 " clip-rule="nonzero"/></clipPath><clipPath id="id2"><path d="M 184.765625 5.097656 C 86.804688 5.097656 7.390625 84.511719 7.390625 182.472656 C 7.390625 280.433594 86.804688 359.847656 184.765625 359.847656 C 282.726562 359.847656 362.140625 280.433594 362.140625 182.472656 C 362.140625 84.511719 282.726562 5.097656 184.765625 5.097656 " clip-rule="nonzero"/></clipPath><clipPath id="id3"><path d="M 62 135 L 375 135 L 375 375 L 62 375 Z M 62 135 " clip-rule="nonzero"/></clipPath><clipPath id="id4"><path d="M 62.730469 321.742188 L 364.707031 135.578125 L 439.09375 256.238281 L 137.117188 442.40625 Z M 62.730469 321.742188 " clip-rule="nonzero"/></clipPath></defs><rect x="-37.5" width="450" fill="#ffffff" y="-37.499999" height="449.999989" fill-opacity="1"/><rect x="-37.5" width="450" fill="#ffffff" y="-37.499999" height="449.999989" fill-opacity="1"/><rect x="-37.5" width="450" fill="#fbfaf9" y="-37.499999" height="449.999989" fill-opacity="1"/><g clip-path="url(#id1)"><g clip-path="url(#id2)"><path stroke-linecap="butt" transform="matrix(0.749827, 0, 0, 0.749827, 7.391317, 5.098476)" fill="none" stroke-linejoin="miter" d="M 236.553777 -0.00109345 C 105.908984 -0.00109345 -0.000922419 105.908813 -0.000922419 236.553606 C -0.000922419 367.198399 105.908984 473.108305 236.553777 473.108305 C 367.19857 473.108305 473.108476 367.198399 473.108476 236.553606 C 473.108476 105.908813 367.19857 -0.00109345 236.553777 -0.00109345 " stroke="#060606" stroke-width="4" stroke-opacity="1" stroke-miterlimit="4"/></g></g><g clip-path="url(#id3)"><g clip-path="url(#id4)"><path fill="#fbfaf9" d="M 62.738281 321.738281 L 364.703125 135.582031 L 439.089844 256.242188 L 137.125 442.402344 L 62.738281 321.738281 " fill-opacity="1" fill-rule="nonzero"/></g></g><g fill="#060606" fill-opacity="1"><g transform="translate(124.013817, 354.963176)"><g><path d="M 12.53125 3.875 L 10.421875 3.21875 L 12.03125 -1.984375 L 5.375 -4.046875 L 3.765625 1.15625 L 1.65625 0.515625 L 5.546875 -12.03125 L 7.65625 -11.390625 L 5.96875 -5.953125 L 12.625 -3.890625 L 14.3125 -9.328125 L 16.421875 -8.671875 Z M 12.53125 3.875 "/></g></g></g><g fill="#060606" fill-opacity="1"><g transform="translate(154.024326, 362.687393)"><g><path d="M 3.890625 0.609375 L 1.71875 0.265625 L 3.765625 -12.71875 L 5.9375 -12.375 Z M 3.890625 0.609375 "/></g></g></g><g fill="#060606" fill-opacity="1"><g transform="translate(175.668889, 365.221283)"><g><path d="M 1.953125 -13.109375 L 7.65625 -13.015625 C 9.019531 -12.992188 10.085938 -12.6875 10.859375 -12.09375 C 11.640625 -11.5 12.019531 -10.6875 12 -9.65625 C 11.988281 -8.914062 11.773438 -8.289062 11.359375 -7.78125 C 10.941406 -7.269531 10.375 -6.9375 9.65625 -6.78125 C 10.53125 -6.613281 11.210938 -6.226562 11.703125 -5.625 C 12.191406 -5.03125 12.429688 -4.289062 12.421875 -3.40625 C 12.398438 -2.28125 11.957031 -1.40625 11.09375 -0.78125 C 10.226562 -0.15625 9.050781 0.144531 7.5625 0.125 L 1.734375 0.03125 Z M 4.125 -11.109375 L 4.0625 -7.640625 L 7.453125 -7.578125 C 8.148438 -7.566406 8.703125 -7.710938 9.109375 -8.015625 C 9.515625 -8.328125 9.722656 -8.757812 9.734375 -9.3125 C 9.742188 -9.863281 9.550781 -10.285156 9.15625 -10.578125 C 8.769531 -10.878906 8.222656 -11.035156 7.515625 -11.046875 Z M 4.03125 -5.6875 L 3.96875 -1.90625 L 7.359375 -1.84375 C 8.234375 -1.832031 8.910156 -1.988281 9.390625 -2.3125 C 9.878906 -2.632812 10.128906 -3.101562 10.140625 -3.71875 C 10.148438 -4.289062 9.914062 -4.75 9.4375 -5.09375 C 8.957031 -5.4375 8.285156 -5.613281 7.421875 -5.625 Z M 4.03125 -5.6875 "/></g></g></g><g fill="#060606" fill-opacity="1"><g transform="translate(205.210215, 364.405447)"><g><path d="M 9.671875 -4.421875 L 3.125 -3.46875 L 2.296875 -0.34375 L 0.015625 0 L 3.84375 -13.84375 L 6.078125 -14.1875 L 13.703125 -2.015625 L 11.34375 -1.671875 Z M 8.5625 -6.25 L 5.234375 -11.671875 L 3.640625 -5.53125 Z M 8.5625 -6.25 "/></g></g></g><g fill="#060606" fill-opacity="1"><g transform="translate(234.602325, 358.628818)"><g/></g></g><g fill="#060606" fill-opacity="1"><g transform="translate(254.58069, 352.000899)"><g><path d="M 14.171875 -6.578125 L 12.3125 -5.703125 L 8.15625 -14.625 L 7.953125 -5.203125 L 6.65625 -4.59375 L -0.6875 -10.53125 L 3.453125 -1.609375 L 1.578125 -0.734375 L -3.953125 -12.65625 L -1.578125 -13.75 L 6.03125 -7.65625 L 6.28125 -17.390625 L 8.640625 -18.5 Z M 14.171875 -6.578125 "/></g></g></g><g fill="#060606" fill-opacity="1"><g transform="translate(284.515389, 336.38824)"><g><path d="M 3.046875 -18.15625 L 7.453125 -11.859375 C 8.441406 -10.453125 8.800781 -9.050781 8.53125 -7.65625 C 8.257812 -6.257812 7.394531 -5.050781 5.9375 -4.03125 C 4.488281 -3.019531 3.0625 -2.628906 1.65625 -2.859375 C 0.257812 -3.085938 -0.929688 -3.90625 -1.921875 -5.3125 L -6.328125 -11.609375 L -4.515625 -12.875 L -0.109375 -6.578125 C 0.523438 -5.671875 1.285156 -5.140625 2.171875 -4.984375 C 3.054688 -4.828125 3.945312 -5.0625 4.84375 -5.6875 C 5.71875 -6.300781 6.226562 -7.039062 6.375 -7.90625 C 6.519531 -8.78125 6.273438 -9.675781 5.640625 -10.59375 L 1.234375 -16.890625 Z M 3.046875 -18.15625 "/></g></g></g><g fill="#060606" fill-opacity="1"><g transform="translate(308.828686, 317.713044)"><g><path d="M 7.1875 -7.046875 L 2.6875 -8.203125 C 2.59375 -8.109375 2.453125 -7.960938 2.265625 -7.765625 L 0.03125 -5.578125 L 2.8125 -2.75 L 1.234375 -1.21875 L -7.96875 -10.609375 L -4.15625 -14.328125 C -2.957031 -15.503906 -1.753906 -16.140625 -0.546875 -16.234375 C 0.660156 -16.328125 1.765625 -15.863281 2.765625 -14.84375 C 3.503906 -14.09375 3.957031 -13.289062 4.125 -12.4375 C 4.300781 -11.59375 4.195312 -10.742188 3.8125 -9.890625 L 8.984375 -8.796875 Z M -1.359375 -7 L 0.875 -9.1875 C 2.394531 -10.675781 2.535156 -12.054688 1.296875 -13.328125 C 0.109375 -14.535156 -1.242188 -14.394531 -2.765625 -12.90625 L -5 -10.71875 Z M -1.359375 -7 "/></g></g></g><g fill="#060606" fill-opacity="1"><g transform="translate(329.142606, 295.900114)"><g><path d="M -2.5625 -15.25 L -5.046875 -11.90625 L 3.90625 -5.234375 L 2.578125 -3.453125 L -6.375 -10.125 L -8.84375 -6.8125 L -10.421875 -7.984375 L -4.140625 -16.421875 Z M -2.5625 -15.25 "/></g></g></g><g fill="#060606" fill-opacity="1"><g transform="translate(344.409844, 273.487595)"><g><path d="M 2.140625 -10.421875 L -0.953125 -4.5625 L 1.078125 -2.0625 L 0 -0.015625 L -8.90625 -11.28125 L -7.859375 -13.28125 L 6.453125 -12.25 L 5.34375 -10.15625 Z M -0.015625 -10.59375 L -6.34375 -11.109375 L -2.328125 -6.203125 Z M -0.015625 -10.59375 "/></g></g></g><g fill="#060606" fill-opacity="1"><g transform="translate(357.219568, 246.21155)"><g><path d="M -7.234375 -14.765625 L -0.703125 -4.140625 L 1.875 -11.8125 L 3.75 -11.1875 L 0.21875 -0.65625 L -1.296875 -1.15625 L -7.8125 -11.8125 L -10.28125 -4.4375 L -12.15625 -5.0625 L -8.734375 -15.265625 Z M -7.234375 -14.765625 "/></g></g></g><g fill="#060606" fill-opacity="1"><g transform="translate(365.179437, 218.548571)"><g><path d="M -1.265625 -10.5625 L -2.34375 -4.03125 L 0.375 -2.296875 L 0 -0.015625 L -12.015625 -7.875 L -11.65625 -10.109375 L 2.25 -13.65625 L 1.859375 -11.3125 Z M -3.359375 -10.046875 L -9.515625 -8.546875 L -4.15625 -5.140625 Z M -3.359375 -10.046875 "/></g></g></g><g fill="#060606" fill-opacity="1"><g transform="translate(33.887914, 246.211023)"><g><path d="M 122.8125 -96.992188 C 122.8125 -112.382812 123.308594 -119.832031 124.632812 -132.410156 L 93.183594 -132.410156 C 94.507812 -119.832031 95.003906 -112.382812 95.003906 -96.992188 L 95.003906 -68.027344 L 41.214844 -68.027344 L 41.214844 -96.992188 C 41.214844 -112.382812 41.710938 -119.832031 43.035156 -132.410156 L 11.585938 -132.410156 C 12.910156 -119.832031 13.40625 -112.382812 13.40625 -96.992188 L 13.40625 -35.421875 C 13.40625 -20.027344 12.910156 -12.578125 11.585938 0 L 43.035156 0 C 41.710938 -12.578125 41.214844 -20.027344 41.214844 -35.421875 L 41.214844 -64.386719 L 95.003906 -64.386719 L 95.003906 -35.421875 C 95.003906 -20.027344 94.507812 -12.578125 93.183594 0 L 124.632812 0 C 123.308594 -12.578125 122.8125 -20.027344 122.8125 -35.421875 Z M 122.8125 -96.992188 "/></g></g></g><g fill="#060606" fill-opacity="1"><g transform="translate(161.830659, 246.211023)"><g><path d="M 11.585938 0 L 18.703125 0 C 17.378906 -12.578125 16.882812 -20.027344 16.882812 -35.421875 L 16.882812 -123.972656 L 72.332031 3.308594 L 77.460938 3.308594 L 128.9375 -124.46875 L 128.9375 -35.421875 C 128.9375 -20.027344 128.441406 -12.578125 127.28125 0 L 158.5625 0 C 157.238281 -12.578125 156.910156 -20.027344 156.910156 -35.421875 L 156.910156 -96.992188 C 156.910156 -112.382812 157.238281 -119.832031 158.5625 -132.410156 L 128.605469 -132.410156 L 87.886719 -34.097656 L 44.191406 -132.410156 L 11.585938 -132.410156 C 12.910156 -119.832031 13.40625 -112.382812 13.40625 -96.992188 L 13.40625 -35.421875 C 13.40625 -20.027344 12.910156 -12.578125 11.585938 0 Z M 11.585938 0 "/></g></g></g></svg>